<?xml version="1.0" encoding="utf-8"?>
<!-- Generator: Adobe Illustrator 19.1.0, SVG Export Plug-In . SVG Version: 6.00 Build 0)  -->
<svg version="1.1" id="Layer_1" xmlns="http://www.w3.org/2000/svg" xmlns:xlink="http://www.w3.org/1999/xlink" x="0px" y="0px"
	 viewBox="0 0 64 64" enable-background="new 0 0 64 64" xml:space="preserve">
<g id="Credit-card">
	<path d="M9.9999504,40.0602989h12c0.5860004,0,1.0606003-0.4745979,1.0606003-1.0604973
		c0-0.5860023-0.4745998-1.0606003-1.0606003-1.0606003h-12c-0.5859003,0-1.0605001,0.4745979-1.0605001,1.0606003
		C8.9394503,39.585701,9.4140501,40.0602989,9.9999504,40.0602989z"/>
	<path d="M9.9999504,45.0602989h12c0.5860004,0,1.0606003-0.4745979,1.0606003-1.0604973
		c0-0.5860023-0.4745998-1.0606003-1.0606003-1.0606003h-12c-0.5859003,0-1.0605001,0.4745979-1.0605001,1.0606003
		C8.9394503,44.585701,9.4140501,45.0602989,9.9999504,45.0602989z"/>
	<path d="M60.9752502,10H3.0237556c-1.6669048,0-3.0234048,1.3773003-3.0234048,3.0704002V50.9291
		c0,1.6935997,1.3564999,3.0709,3.0234048,3.0709h57.9514961c1.6679001,0,3.0243988-1.3773003,3.0243988-3.0709V13.0704002
		C63.999649,11.3773003,62.6431503,10,60.9752502,10z M61.999649,50.9291c0,0.573101-0.4599991,1.0401001-1.0243988,1.0401001
		H3.0237556c-0.5644047,0-1.0234048-0.4669991-1.0234048-1.0401001V27.9431992H61.999649V50.9291z M61.999649,25.9025002H2.0003507
		v-6.0823994H61.999649V25.9025002z M61.999649,17.7794991H2.0003507v-4.7090988
		c0-0.5731001,0.4590001-1.0396004,1.0234048-1.0396004h57.9514961c0.5643997,0,1.0243988,0.4665003,1.0243988,1.0396004V17.7794991
		z"/>
	<path d="M39.9999504,47.0261002c2.0798988,0,3.9165993-1.0590019,5-2.6660004c1.0834999,1.6069984,2.9200974,2.6660004,5,2.6660004
		c3.3232994,0,6.0263977-2.7030983,6.0263977-6.0262985c0-3.3233032-2.7030983-6.0264015-6.0263977-6.0264015
		c-2.0799026,0-3.9165001,1.0589981-5,2.6660004c-1.0834007-1.6070023-2.9201012-2.6660004-5-2.6660004
		c-3.3231964,0-6.0263023,2.7030983-6.0263023,6.0264015C33.9736481,44.3230019,36.676754,47.0261002,39.9999504,47.0261002z
		 M49.9999504,37.0261002c2.1913986,0,3.9736977,1.7821999,3.9736977,3.9737015c0,2.1913986-1.782299,3.9735985-3.9736977,3.9735985
		c-2.1914024,0-3.9736023-1.7821999-3.9736023-3.9735985C46.0263481,38.8083,47.808548,37.0261002,49.9999504,37.0261002z
		 M39.9999504,37.0261002c2.1913986,0,3.9736977,1.7821999,3.9736977,3.9737015c0,2.1913986-1.782299,3.9735985-3.9736977,3.9735985
		c-2.1914024,0-3.9736023-1.7821999-3.9736023-3.9735985C36.0263481,38.8083,37.808548,37.0261002,39.9999504,37.0261002z"/>
</g>
<g>
</g>
<g>
</g>
<g>
</g>
<g>
</g>
<g>
</g>
<g>
</g>
<g>
</g>
<g>
</g>
<g>
</g>
<g>
</g>
<g>
</g>
<g>
</g>
<g>
</g>
<g>
</g>
<g>
</g>
</svg>
