<?xml version="1.0" encoding="iso-8859-1"?>
<!-- Generator: Adobe Illustrator 19.0.0, SVG Export Plug-In . SVG Version: 6.00 Build 0)  -->
<svg version="1.1" id="Layer_1" xmlns="http://www.w3.org/2000/svg" xmlns:xlink="http://www.w3.org/1999/xlink" x="0px" y="0px"
	 viewBox="0 0 512.004 512.004" style="enable-background:new 0 0 512.004 512.004;" xml:space="preserve">
<g>
	<g>
		<path d="M512.004,328.51c0-42.647-24.813-62.391-70.725-71.63c-4.015-0.808-8.191-1.551-13.104-2.352
			c-1.881-0.306-3.775-0.606-6.308-1.002c-3.078-0.479-4.664-0.726-6.064-0.946c-6.566-1.035-10.845-1.785-14.734-2.624
			c-1.569-0.338-3.463-0.949-5.643-1.805c-0.263-0.141-0.533-0.272-0.817-0.388c-7.582-3.085-18.063-8.758-30.97-16.678
			c-0.215-0.132-0.423-0.257-0.639-0.391c-0.648-0.399-1.313-0.814-1.973-1.224c-0.676-0.42-1.353-0.841-2.041-1.273
			c-0.575-0.36-1.155-0.726-1.738-1.094c-0.29-0.183-0.588-0.373-0.88-0.559c3.952-9.322,2.135-20.51-5.463-28.108
			c-9.997-9.997-26.212-9.997-36.209,0l-0.065,0.065c-3.991-2.8-8.072-5.692-12.232-8.663c7.198-10.006,6.303-24.036-2.694-33.034
			c-9.997-9.997-26.212-9.997-36.209,0l-2.638,2.64c-10.894-8.139-21.168-15.933-30.107-22.808
			c-0.242-0.185-0.495-0.344-0.742-0.517c-8.299-5.836-19.624-4.912-26.86,2.325l-12.271,12.271l-5.256,5.253
			c-6.952,6.952-8.256,17.417-3.911,25.685c1.003,1.908,2.306,3.7,3.91,5.304l4.77,4.77c0.045,0.045,0.071,0.099,0.113,0.145
			c1.536,1.713,0.987,4.465-1.07,5.357c-0.339,0.145-0.673,0.277-1.011,0.419c-0.322,0.127-0.704,0.276-1.228,0.479
			c-0.623,0.24-0.623,0.24-1.292,0.503c-0.227,0.09-0.431,0.204-0.644,0.309c-12.466,4.9-24.071,7.468-34.872,7.995
			c-0.492-0.074-0.99-0.121-1.497-0.107c-21.73,0.589-39.977-6.907-55.036-19.868c-5.109-4.397-9.465-9.115-13.057-13.815
			c-2.11-2.76-3.461-4.837-4.052-5.883c-1.25-2.211-3.421-3.751-5.922-4.199c-6.141-1.101-11.593,0.913-16.594,5.83
			c-11.581,11.381-20.725,38.427-30.29,79.084c-0.056,0.239-0.111,0.483-0.167,0.723c-4.019,17.156-7.679,35.462-10.914,53.769
			c-1.147,6.494-2.158,12.525-3.024,17.941c-0.433,2.706-0.751,4.764-0.954,6.111l-8.418,24.519
			c-0.643,1.873-0.615,3.912,0.081,5.767c1.634,4.358,6.456,9.283,15.567,13.448c13.12,5.998,33.215,9.455,61.885,9.455h374.272
			c2.468-0.137,5.617-0.506,9.596-1.263c6.605-1.257,13.223-3.194,19.482-5.988c18.815-8.397,30.665-22.802,30.653-43.819
			C511.998,328.597,512.004,328.554,512.004,328.51z M82.708,199.913c17.373,14.963,37.997,23.752,61.648,24.179
			c17.011,29.541,28.078,62.103,32.54,95.884h-31.829v-25.599c0-14.142-11.458-25.6-25.6-25.6H36.78
			c1.09-5.118,2.211-10.164,3.361-15.11c0.138-0.592,0.273-1.194,0.411-1.783c8.85-37.612,19.201-64.433,24.885-70.658
			C69.351,186.753,75.08,193.343,82.708,199.913z M30.562,300.458c0.871-4.811,1.786-9.694,2.745-14.615h86.159
			c4.716,0,8.533,3.817,8.533,8.533v25.599H27.2c0.262-1.604,0.54-3.286,0.834-5.037c0.765-4.552,1.577-9.214,2.431-13.943
			C30.498,300.817,30.53,300.638,30.562,300.458z M413.147,269.439c1.418,0.224,3.023,0.473,6.09,0.95
			c2.498,0.39,4.358,0.684,6.194,0.983c4.721,0.769,8.698,1.477,12.481,2.238c35.327,7.11,53.525,19.663,56.566,46.366H194.102
			c-4.219-34.083-14.759-67.029-30.988-97.233c8.024-1.275,16.35-3.461,24.97-6.62l102.885,66.953
			c34.061,22.16,79.003,14.21,103.583-17.203c1.017,0.299,2.002,0.566,2.92,0.764C401.749,267.562,406.288,268.358,413.147,269.439z
			 M215.214,150.522c1.363-1.366,3.463-1.528,5.011-0.431c0.039,0.028,0.082,0.047,0.121,0.077
			c8.428,6.482,18.075,13.808,28.316,21.476l-0.215,0.215l-3.048,3.046c-0.158,0.158-0.304,0.322-0.457,0.483
			c-0.159,0.167-0.322,0.333-0.476,0.503c-0.175,0.194-0.34,0.394-0.508,0.591c-0.125,0.147-0.253,0.293-0.373,0.442
			c-0.176,0.217-0.343,0.438-0.511,0.66c-0.1,0.132-0.203,0.264-0.3,0.398c-0.175,0.241-0.343,0.485-0.509,0.73
			c-0.077,0.114-0.154,0.227-0.229,0.341c-0.174,0.267-0.342,0.536-0.505,0.808c-0.055,0.092-0.109,0.183-0.163,0.275
			c-0.172,0.295-0.339,0.593-0.498,0.893c-0.033,0.062-0.065,0.124-0.097,0.187c-0.172,0.331-0.338,0.663-0.494,1
			c-0.008,0.017-0.015,0.035-0.023,0.052c-1.045,2.259-1.74,4.631-2.089,7.043c-0.002,0.012-0.004,0.023-0.005,0.035
			c-0.05,0.347-0.09,0.694-0.125,1.042c-0.006,0.058-0.015,0.115-0.021,0.173c-0.003,0.029-0.004,0.059-0.006,0.088
			c-0.027,0.301-0.048,0.602-0.065,0.903c-0.008,0.141-0.016,0.282-0.021,0.422c-0.01,0.261-0.016,0.522-0.019,0.783
			c-0.002,0.188-0.001,0.376,0.001,0.564c0.003,0.222,0.007,0.444,0.016,0.666c0.009,0.239,0.023,0.477,0.039,0.716
			c0.012,0.176,0.022,0.352,0.038,0.528c0.026,0.303,0.06,0.605,0.097,0.906c0.014,0.116,0.026,0.232,0.042,0.348
			c0.056,0.414,0.122,0.827,0.199,1.238c0.001,0.006,0.002,0.011,0.003,0.017c0.094,0.505,0.204,1.008,0.329,1.509
			c0.42,1.68,1.016,3.324,1.781,4.906c0.012,0.025,0.025,0.051,0.038,0.076c0.182,0.373,0.373,0.743,0.574,1.108
			c0.027,0.049,0.054,0.097,0.081,0.146c0.19,0.34,0.388,0.677,0.595,1.01c0.04,0.064,0.08,0.129,0.121,0.193
			c0.199,0.315,0.406,0.626,0.621,0.934c0.051,0.074,0.102,0.148,0.154,0.221c0.211,0.296,0.43,0.587,0.654,0.876
			c0.061,0.078,0.12,0.157,0.182,0.235c0.229,0.287,0.467,0.57,0.711,0.849c0.061,0.07,0.12,0.142,0.182,0.212
			c0.272,0.305,0.553,0.605,0.842,0.9c0.036,0.037,0.071,0.076,0.107,0.113c0.029,0.029,0.056,0.06,0.085,0.09
			c0.652,0.652,1.331,1.259,2.032,1.825c0.067,0.054,0.138,0.105,0.205,0.159c0.281,0.222,0.564,0.441,0.852,0.65
			c0.051,0.037,0.098,0.077,0.149,0.114c0.068,0.049,0.14,0.087,0.209,0.135c0.542,0.379,1.091,0.742,1.655,1.075
			c0.121,0.071,0.245,0.135,0.367,0.205c0.583,0.331,1.175,0.643,1.777,0.925c0.006,0.003,0.011,0.006,0.017,0.009
			c9.479,4.428,21.111,2.73,28.938-5.096l5.432-5.432l3.412-3.411c4.057,2.904,8.037,5.732,11.94,8.481l-5.785,5.785
			c-0.164,0.164-0.315,0.334-0.473,0.501c-0.152,0.161-0.309,0.319-0.456,0.482c-0.18,0.2-0.35,0.405-0.523,0.609
			c-0.119,0.141-0.242,0.28-0.357,0.423c-0.181,0.223-0.353,0.451-0.526,0.679c-0.094,0.125-0.191,0.249-0.283,0.375
			c-0.18,0.247-0.353,0.498-0.523,0.75c-0.072,0.107-0.145,0.213-0.215,0.321c-0.178,0.272-0.349,0.547-0.515,0.824
			c-0.051,0.086-0.102,0.171-0.152,0.257c-0.176,0.301-0.345,0.604-0.507,0.909c-0.03,0.056-0.058,0.112-0.088,0.169
			c-0.175,0.336-0.343,0.674-0.502,1.016c-0.005,0.011-0.01,0.022-0.015,0.033c-1.049,2.264-1.747,4.642-2.095,7.06
			c-0.001,0.009-0.003,0.018-0.004,0.028c-0.05,0.35-0.091,0.701-0.126,1.053c-0.006,0.054-0.014,0.109-0.019,0.163
			c-0.003,0.028-0.003,0.055-0.006,0.083c-0.028,0.308-0.049,0.615-0.066,0.923c-0.007,0.132-0.015,0.263-0.02,0.395
			c-0.011,0.271-0.017,0.541-0.019,0.812c-0.002,0.176-0.001,0.351,0.001,0.527c0.003,0.235,0.008,0.469,0.017,0.703
			c0.009,0.222,0.022,0.443,0.036,0.664c0.013,0.194,0.025,0.388,0.042,0.582c0.024,0.278,0.056,0.556,0.089,0.833
			c0.017,0.14,0.031,0.281,0.051,0.421c0.051,0.373,0.112,0.745,0.179,1.116c0.009,0.047,0.015,0.094,0.024,0.141
			c0.329,1.751,0.843,3.472,1.539,5.137c0.02,0.047,0.041,0.094,0.061,0.141c0.151,0.356,0.31,0.709,0.478,1.059
			c0.039,0.081,0.08,0.162,0.12,0.243c0.154,0.311,0.313,0.62,0.48,0.925c0.058,0.107,0.118,0.212,0.177,0.318
			c0.155,0.275,0.315,0.547,0.482,0.817c0.077,0.126,0.155,0.251,0.235,0.376c0.155,0.242,0.315,0.482,0.479,0.721
			c0.098,0.143,0.197,0.286,0.298,0.428c0.153,0.213,0.311,0.422,0.472,0.631c0.12,0.158,0.24,0.315,0.365,0.471
			c0.148,0.184,0.302,0.364,0.456,0.545c0.145,0.171,0.288,0.342,0.438,0.51c0.14,0.157,0.288,0.309,0.433,0.463
			c0.171,0.182,0.339,0.366,0.517,0.544c0.008,0.008,0.015,0.016,0.023,0.025c0.127,0.127,0.26,0.246,0.389,0.37
			c0.386,0.371,0.786,0.732,1.2,1.083c0.123,0.104,0.244,0.214,0.369,0.316c0.261,0.213,0.532,0.418,0.804,0.622
			c0.08,0.06,0.157,0.123,0.237,0.181c0.081,0.06,0.157,0.123,0.239,0.182c0.108,0.078,0.224,0.14,0.333,0.216
			c0.43,0.297,0.866,0.582,1.309,0.85c0.246,0.148,0.493,0.29,0.743,0.429c0.462,0.258,0.93,0.503,1.404,0.73
			c0.101,0.048,0.2,0.102,0.301,0.149c9.467,4.389,21.063,2.68,28.872-5.128l0.611-0.61c0.012-0.012,0.025-0.022,0.037-0.034
			l6.517-6.517l5.649-5.646c12.701,8.104,23.517,14.466,32.483,19.012c-19.685,21.494-52.581,26.24-77.816,9.823l-95.802-62.344
			c3.235-4.358,4.565-9.894,3.778-15.246c-0.002-0.013-0.004-0.026-0.005-0.039c-0.087-0.587-0.195-1.171-0.334-1.751
			c-0.002-0.008-0.004-0.016-0.006-0.023c-0.122-0.51-0.27-1.015-0.432-1.518c-0.041-0.128-0.083-0.256-0.127-0.384
			c-0.173-0.5-0.359-0.996-0.572-1.485c-0.039-0.089-0.085-0.176-0.125-0.265c-0.183-0.405-0.382-0.805-0.594-1.2
			c-0.084-0.157-0.169-0.313-0.257-0.469c-0.257-0.451-0.526-0.897-0.821-1.333c-0.052-0.076-0.109-0.15-0.161-0.226
			c-0.275-0.396-0.569-0.783-0.876-1.164c-0.105-0.131-0.212-0.26-0.321-0.389c-0.363-0.429-0.74-0.851-1.146-1.258
			c-0.006-0.006-0.012-0.014-0.018-0.02l-4.77-4.77c-0.472-0.472-0.826-1.018-1.062-1.6c-0.709-1.749-0.354-3.831,1.063-5.248
			l5.22-5.22L215.214,150.522z M338.836,210.506c3.332,3.332,3.332,8.741,0,12.073l-0.368,0.368
			c-0.019,0.019-0.04,0.035-0.059,0.054l-5.301,5.301l-11.803,11.798c-2.838,2.785-6.92,3.618-10.035,2.35
			c-0.639-0.28-1.249-0.641-1.817-1.085c-0.081-0.065-0.164-0.128-0.242-0.195c-0.12-0.101-0.235-0.208-0.35-0.317
			c-0.135-0.129-0.267-0.259-0.392-0.395c-0.07-0.075-0.138-0.15-0.205-0.227c-0.155-0.179-0.302-0.363-0.44-0.552
			c-0.035-0.047-0.07-0.093-0.104-0.141c-0.159-0.226-0.306-0.458-0.44-0.695c-0.011-0.02-0.024-0.039-0.035-0.059
			c-0.588-1.056-0.935-2.209-1.043-3.381c-0.012-0.139-0.014-0.279-0.02-0.419c-0.006-0.137-0.014-0.274-0.013-0.412
			c0.002-0.179,0.013-0.357,0.026-0.536c0.007-0.097,0.012-0.194,0.022-0.291c0.021-0.196,0.05-0.392,0.085-0.586
			c0.014-0.079,0.027-0.157,0.043-0.236c0.041-0.202,0.091-0.403,0.147-0.602c0.02-0.07,0.041-0.141,0.063-0.211
			c0.062-0.201,0.131-0.4,0.209-0.596c0.027-0.069,0.057-0.137,0.086-0.206c0.082-0.193,0.169-0.385,0.266-0.573
			c0.037-0.071,0.078-0.141,0.117-0.211c0.101-0.182,0.204-0.363,0.319-0.539c0.047-0.072,0.101-0.14,0.15-0.211
			c0.12-0.171,0.239-0.343,0.373-0.507c0.036-0.044,0.078-0.085,0.116-0.129c0.152-0.179,0.306-0.357,0.475-0.526l5.392-5.394
			l7.588-7.588c0.011-0.011,0.019-0.023,0.03-0.034l5.091-5.094C330.096,207.174,335.504,207.174,338.836,210.506z M287.636,168.875
			c3.332,3.332,3.332,8.741,0,12.073l-4.063,4.062c-0.025,0.024-0.052,0.045-0.076,0.069l-13.321,13.321
			c-2.86,2.864-7.02,3.71-10.171,2.392c-0.125-0.056-0.25-0.11-0.372-0.173c-0.049-0.024-0.098-0.048-0.147-0.074
			c-0.399-0.213-0.781-0.466-1.149-0.746c-0.132-0.103-0.266-0.206-0.39-0.315c-0.077-0.066-0.152-0.136-0.228-0.206
			c-0.179-0.167-0.352-0.338-0.513-0.516c-0.035-0.038-0.069-0.076-0.103-0.114c-0.192-0.219-0.373-0.443-0.539-0.676
			c-0.006-0.008-0.012-0.016-0.018-0.024c-0.894-1.26-1.41-2.707-1.545-4.181c-0.012-0.134-0.014-0.268-0.019-0.403
			c-0.006-0.141-0.014-0.282-0.013-0.423c0.002-0.181,0.013-0.363,0.026-0.544c0.006-0.093,0.011-0.185,0.021-0.278
			c0.021-0.203,0.052-0.405,0.087-0.606c0.012-0.07,0.024-0.14,0.038-0.209c0.043-0.212,0.095-0.423,0.154-0.632
			c0.016-0.058,0.034-0.116,0.051-0.173c0.066-0.214,0.139-0.426,0.222-0.635c0.021-0.052,0.043-0.103,0.065-0.154
			c0.089-0.211,0.184-0.42,0.29-0.625c0.024-0.046,0.051-0.091,0.076-0.137c0.113-0.207,0.231-0.412,0.362-0.612
			c0.021-0.032,0.046-0.063,0.067-0.095c0.3-0.443,0.643-0.867,1.035-1.259l6.542-6.545l3.703-3.7
			c0.015-0.015,0.027-0.031,0.042-0.046l7.814-7.818C278.896,165.543,284.304,165.543,287.636,168.875z M474.389,356.874
			c-4.94,2.205-10.323,3.78-15.718,4.807c-3.222,0.613-5.672,0.9-6.935,0.979l-373.741-0.017c-26.412,0-44.168-3.055-54.789-7.91
			c-2.129-0.973-3.77-1.931-4.995-2.83l5.102-14.859h163.141c0.005,0,0.011-0.001,0.016-0.001h307.366
			C491.333,345.924,484.618,352.309,474.389,356.874z"/>
	</g>
</g>
<g>
</g>
<g>
</g>
<g>
</g>
<g>
</g>
<g>
</g>
<g>
</g>
<g>
</g>
<g>
</g>
<g>
</g>
<g>
</g>
<g>
</g>
<g>
</g>
<g>
</g>
<g>
</g>
<g>
</g>
</svg>
